<svg width="263" height="40" viewBox="0 0 263 40" fill="none" xmlns="http://www.w3.org/2000/svg">
<path fill-rule="evenodd" clip-rule="evenodd" d="M14.7632 19.0586L19.9416 6.93964C20.1619 6.4631 20.3352 6.05005 20.4634 5.69994C20.5921 5.35211 20.6573 5.04948 20.6573 4.79262C20.6573 4.42477 20.5011 4.1679 20.1882 4.02088C19.8764 3.87385 19.3896 3.74513 18.7288 3.63529C18.5818 3.63529 18.4348 3.62557 18.2883 3.60726C18.1413 3.58896 17.9765 3.56207 17.7923 3.52488V2.14731H26.8816V3.46996H23.4108L15.6447 21.2623V33.8212C15.6447 34.9968 15.9468 35.7308 16.5526 36.0249C17.1585 36.3184 17.8106 36.4648 18.508 36.4648H18.5921H18.6739H19.3347H19.9416V37.732H8.26316V36.4105H12.1739V21.2623L4.3524 6.49971C4.2786 6.35211 4.17792 6.16905 4.04863 5.94822C3.92048 5.72797 3.74657 5.49056 3.52574 5.23255C3.19508 4.86527 2.75515 4.5266 2.20309 4.21367C1.65332 3.90074 0.937071 3.67191 0.0560641 3.52488L0 2.14731H9.97082V3.46996H6.5L14.7632 19.0586Z" fill="#757674"></path>
<path fill-rule="evenodd" clip-rule="evenodd" d="M57.3716 36.4102L50.8716 14.7626H46.5192L42.6084 32.1139C42.5724 32.4079 42.5352 32.674 42.498 32.9125C42.462 33.1511 42.4431 33.3811 42.4431 33.6013C42.4431 34.8862 42.7835 35.6848 43.462 35.9978C44.1416 36.309 44.9036 36.4652 45.748 36.4652H46.1073H46.4648H46.7125H46.9608V37.7323H37.8716V36.4102H39.5792L48.2823 5.34058e-05H49.5501L59.5747 33.3811C59.9047 34.7758 60.3086 35.6391 60.7863 35.9697C61.264 36.3004 61.7961 36.4652 62.3842 36.4652H62.9076H63.4305V37.7323H54.7823V36.4102H57.3716ZM50.4305 13.44L48.7223 7.38163L46.9608 13.44H50.4305Z" fill="#757674"></path>
<path fill-rule="evenodd" clip-rule="evenodd" d="M78.2207 1.70738H84.7207V5.17763C86.7774 3.81894 88.7596 2.83724 90.6698 2.23141C92.5794 1.62443 94.3597 1.30349 96.013 1.2663C100.273 1.2663 103.678 2.82752 106.231 5.94823C108.783 9.07008 110.133 12.522 110.28 16.3052V16.5809V16.9105C110.317 20.363 109.169 23.5661 106.837 26.5226C104.504 29.4791 100.749 31.2137 95.572 31.728C96.2699 31.9854 96.9947 32.3064 97.7482 32.6919C98.5005 33.0769 99.2808 33.4728 100.089 33.8761C101.484 34.5741 102.953 35.2171 104.496 35.8046C106.038 36.3922 107.635 36.6862 109.288 36.6862C109.692 36.6862 110.086 36.6673 110.472 36.6302C110.858 36.5947 111.234 36.5386 111.602 36.4648L112.483 37.2926C111.785 37.6965 111.042 37.99 110.252 38.1736C109.463 38.3556 108.645 38.4482 107.801 38.4482C106.479 38.4482 105.102 38.2829 103.669 37.9522C102.237 37.6221 100.787 37.1822 99.318 36.6302C98.1423 36.1902 96.9673 35.7028 95.7922 35.1708C94.6177 34.6393 93.4787 34.0781 92.3775 33.4911C90.9084 32.7554 89.5131 32.0312 88.1904 31.3149C86.8683 30.5981 85.7121 30.002 84.7207 29.5249V33.8212C84.7207 35.0329 85.0045 35.7766 85.5743 36.0529C86.1441 36.3275 86.8872 36.4648 87.8054 36.4648H88.6595H89.5131V37.732H79.1023V36.4105H81.6904V9.08896V8.73026V8.31779C81.7276 6.9591 81.5994 5.74628 81.306 4.68278C81.0119 3.61699 79.9833 3.08495 78.2207 3.08495V1.70738ZM84.7207 7.38129V25.6141C86.7774 27.3395 88.7236 28.5701 90.5588 29.3052C92.3958 30.038 94.1034 30.4059 95.6818 30.4059C98.4364 30.4059 100.76 29.5523 102.651 27.8453C104.541 26.1376 105.91 24.2549 106.753 22.1988C107.085 21.4642 107.332 20.7291 107.498 19.9957C107.663 19.2606 107.745 18.5632 107.745 17.9025V17.6822V17.4065C107.745 17.3321 107.736 17.2594 107.718 17.1868C107.7 17.1124 107.69 17.0386 107.69 16.9654C107.69 12.375 106.323 9.00601 103.587 6.85784C100.852 4.70967 97.8489 3.6353 94.5806 3.6353C92.7442 3.6353 90.9547 3.95681 89.2093 4.59926C87.4656 5.24228 85.969 6.18793 84.7207 7.43564V7.38129Z" fill="#757674"></path>
<path fill-rule="evenodd" clip-rule="evenodd" d="M156.781 3.02918V0.439934H158.103V13.4399H156.781C156.781 9.73112 155.918 7.11499 154.192 5.59039C152.467 4.06636 150.575 3.13902 148.519 2.80893C148.078 2.77231 147.637 2.73513 147.196 2.69909C146.756 2.6619 146.334 2.6436 145.93 2.6436C141.156 2.6436 137.502 4.40675 134.968 7.93135C132.434 11.4571 131.168 15.3679 131.168 19.6648V19.8576V20.0503C131.204 24.0526 132.425 27.7809 134.83 31.2317C137.235 34.6848 140.935 36.722 145.93 37.3461C146.04 37.3461 146.149 37.3564 146.259 37.3747C146.371 37.3919 146.481 37.4022 146.591 37.4022H146.866H147.196C149.18 37.4022 150.97 37.1081 152.568 36.52C154.164 35.9325 155.386 35.2906 156.231 34.5927C156.451 34.409 156.652 34.2162 156.836 34.0149C157.02 33.8124 157.149 33.619 157.222 33.4359V29.4697C157.222 28.4411 156.735 27.8352 155.762 27.6516C154.789 27.468 153.55 27.3764 152.044 27.3764V26H163.722V27.3215H160.251V30.3507C160.288 30.6081 160.334 30.8192 160.39 30.9846C160.444 31.1499 160.49 31.2878 160.527 31.3976C160.674 31.6539 160.794 31.8289 160.885 31.9205C160.977 32.0132 161.041 32.0772 161.078 32.1138C161.078 32.1499 161.05 32.2054 160.995 32.2792C160.94 32.3518 160.839 32.4628 160.692 32.6104C160.472 32.9399 160.196 33.2895 159.866 33.655C159.535 34.0235 159.131 34.3913 158.653 34.758C157.332 35.8227 155.57 36.8055 153.365 37.7042C151.163 38.6036 148.684 39.0538 145.93 39.0538C139.724 38.8335 135.114 36.8965 132.103 33.2437C129.092 29.5887 127.586 25.5217 127.586 21.0418V20.4914C127.586 20.3072 127.605 20.1236 127.641 19.9399C127.863 15.2391 129.68 10.9245 133.095 6.996C136.51 3.06579 141.376 1.04577 147.692 0.935929C148.354 0.935929 149.501 1.02803 151.135 1.21167C152.77 1.39588 154.651 2.01945 156.781 3.08467V3.02918Z" fill="#757674"></path>
<path fill-rule="evenodd" clip-rule="evenodd" d="M178.918 36.4102H182.002V6.50005C182.002 5.25063 181.69 4.44285 181.066 4.07557C180.441 3.70886 179.597 3.52523 178.532 3.52523V2.14708H188.502V3.46973H185.032V33.3811C185.032 34.7758 185.234 35.6391 185.638 35.9697C186.041 36.3004 186.592 36.4652 187.29 36.4652H187.869H188.502V37.7323H178.918V36.4102Z" fill="#757674"></path>
<path fill-rule="evenodd" clip-rule="evenodd" d="M234.5 3.02918V0H235.823V13.8816H234.5C234.537 13.6974 234.555 13.4954 234.555 13.2757V12.6699C234.555 9.87815 233.959 7.76659 232.766 6.3341C231.572 4.90217 230.259 3.87357 228.827 3.24943C227.578 2.73513 226.403 2.43307 225.301 2.34153C224.199 2.24943 223.501 2.20366 223.208 2.20366C217.884 2.53318 213.982 4.39703 211.503 7.79405C209.024 11.1905 207.766 14.964 207.73 19.1138V19.5275V19.885C207.913 24.2185 209.337 28.1842 211.999 31.7838C214.661 35.3822 218.397 37.2357 223.208 37.3461C223.392 37.3839 223.585 37.4022 223.786 37.4022H224.365C226.789 37.4022 228.955 36.9519 230.865 36.0526C232.774 35.1533 234.28 34.151 235.382 33.0492C235.529 32.9033 235.676 32.7551 235.823 32.6104C235.969 32.4628 236.098 32.3158 236.209 32.1688L237.089 33.381C236.539 34.5183 235.473 35.5286 233.894 36.4102C232.316 37.2923 230.627 37.9519 228.827 38.3936C228.019 38.6138 227.211 38.7878 226.403 38.9165C225.595 39.0452 224.842 39.1098 224.145 39.1098H223.897H223.648C223.575 39.0727 223.501 39.0538 223.428 39.0538H223.208C217.149 38.6138 212.55 36.4651 209.409 32.6104C206.27 28.7529 204.682 24.5297 204.644 19.9399V19.8576V19.7746C204.608 15.1854 206.187 10.9703 209.382 7.1333C212.578 3.29519 217.48 1.22941 224.09 0.935927C224.677 0.935927 225.843 1 227.587 1.12872C229.332 1.25744 231.195 1.70709 233.178 2.47826C233.399 2.58867 233.619 2.68936 233.84 2.78089C234.059 2.873 234.28 2.97483 234.5 3.08467V3.02918Z" fill="#757674"></path>
<path fill-rule="evenodd" clip-rule="evenodd" d="M253.234 36.4102H256.318V6.50005C256.318 5.25063 256.007 4.44285 255.383 4.07557C254.758 3.70886 253.913 3.52523 252.848 3.52523V2.14708H262.818V3.46973H259.348V33.3811C259.348 34.7758 259.55 35.6391 259.954 35.9697C260.358 36.3004 260.909 36.4652 261.607 36.4652H262.185H262.818V37.7323H253.234V36.4102Z" fill="#757674"></path>
</svg>